<!-- Save this as github.svg -->
<svg xmlns="http://www.w3.org/2000/svg" fill="#000" viewBox="0 0 24 24">
  <path d="M12 .5C5.37.5 0 5.87 0 12.5c0 5.29 3.438 9.773 8.205 11.365.6.111.82-.26.82-.577 0-.285-.011-1.04-.017-2.04-3.338.726-4.042-1.612-4.042-1.612-.546-1.386-1.333-1.755-1.333-1.755-1.09-.745.083-.729.083-.729 1.204.084 1.838 1.236 1.838 1.236 1.07 1.834 2.809 1.304 3.495.997.108-.775.418-1.305.76-1.605-2.665-.304-5.466-1.334-5.466-5.933 0-1.31.469-2.38 1.236-3.22-.124-.303-.536-1.524.117-3.176 0 0 1.008-.322 3.301 1.23a11.49 11.49 0 0 1 3.003-.403c1.02.005 2.047.137 3.003.403 2.291-1.553 3.297-1.23 3.297-1.23.655 1.653.243 2.874.12 3.176.77.84 1.235 1.91 1.235 3.22 0 4.61-2.805 5.625-5.475 5.921.43.37.823 1.102.823 2.222 0 1.606-.015 2.9-.015 3.293 0 .32.216.694.825.576C20.565 22.27 24 17.79 24 12.5 24 5.87 18.63.5 12 .5z"></path>
</svg>
